<svg xmlns="http://www.w3.org/2000/svg" xmlns:xlink="http://www.w3.org/1999/xlink" id="Capa_1" width="150" height="150" x="0" style="enable-background:new 0 0 512 512" y="0" version="1.1" viewBox="0 0 512 512" xml:space="preserve"><style type="text/css">.st0{fill:#f66}.st1{fill:#fafafa}.st2{fill:#333}.st3{font-family:&apos;CircularStd-Bold&apos;}.st4{font-size:48px}</style><path d="M389,106.9c-1.8-2.2-4.5-3.5-7.4-3.5H148.5c-3,0-5.8,1.4-7.6,3.7c-1.8,2.4-2.4,5.5-1.7,8.3L170,230.3	c1.1,4.2,4.9,7.1,9.3,7.1c0.2,0,0.3,0,0.5,0l183.2-9.2c4.4-0.2,8.2-3.5,9-7.9L391,114.7C391.6,111.9,390.8,109,389,106.9z" class="st0"/><g><path d="M324,199.4c-5.3,0-9.6-4.3-9.6-9.6v-38.4c0-5.3,4.3-9.6,9.6-9.6c5.3,0,9.6,4.3,9.6,9.6v38.4 C333.6,195.1,329.3,199.4,324,199.4z" class="st1"/><path d="M266.4,199.4c-5.3,0-9.6-4.3-9.6-9.6v-38.4c0-5.3,4.3-9.6,9.6-9.6c5.3,0,9.6,4.3,9.6,9.6v38.4 C276,195.1,271.7,199.4,266.4,199.4z" class="st1"/><path d="M208.8,199.4c-5.3,0-9.6-4.3-9.6-9.6v-38.4c0-5.3,4.3-9.6,9.6-9.6c5.3,0,9.6,4.3,9.6,9.6v38.4 C218.4,195.1,214.1,199.4,208.8,199.4z" class="st1"/></g><g><circle cx="208.8" cy="324.2" r="28.8" class="st2"/><circle cx="324" cy="324.2" r="28.8" class="st2"/><path d="M343.2,276.2H189.6c-4.4,0-8.2-2.9-9.3-7.1L131,84.2H93.6c-5.3,0-9.6-4.3-9.6-9.6c0-5.3,4.3-9.6,9.6-9.6h44.7 c4.4,0,8.2,2.9,9.3,7.1L197,257h146.2c5.3,0,9.6,4.3,9.6,9.6C352.8,271.9,348.5,276.2,343.2,276.2z" class="st2"/></g><text class="st2 st3 st4" transform="matrix(1 0 0 1 54 431)">Your cart is empty</text></svg>